<?xml version="1.0" encoding="utf-8"?>
<!-- Generator: Adobe Illustrator 16.0.0, SVG Export Plug-In . SVG Version: 6.00 Build 0)  -->
<!DOCTYPE svg PUBLIC "-//W3C//DTD SVG 1.1//EN" "http://www.w3.org/Graphics/SVG/1.1/DTD/svg11.dtd">
<svg version="1.1" id="Layer_1" xmlns="http://www.w3.org/2000/svg" xmlns:xlink="http://www.w3.org/1999/xlink" x="0px" y="0px"
	 width="145.953px" height="93.238px" viewBox="0 0 145.953 93.238" enable-background="new 0 0 145.953 93.238"
	 xml:space="preserve">
<g>
	<defs>
		<rect id="SVGID_1_" width="145.953" height="93.238"/>
	</defs>
	<clipPath id="SVGID_2_">
		<use xlink:href="#SVGID_1_"  overflow="visible"/>
	</clipPath>
	<path clip-path="url(#SVGID_2_)" fill="#162B75" d="M141.51,71.156l-0.717-0.486c-2.493-1.692-3.177-2.543-3.177-3.953
		c0-1.788,1.692-2.424,3.141-2.424c2.391,0,3.059,1.057,3.082,1.093c0.126,0.229,0.319,0.858,0.346,1.133
		c0.026,0.175,0.072,0.5,0.446,0.5c0.418,0,0.418-0.457,0.418-0.761c0-1.307,0.069-2.072,0.1-2.398
		c0.01-0.095,0.015-0.156,0.015-0.184c0-0.389-0.346-0.389-0.476-0.389c-0.193,0-0.376,0-0.839-0.108
		c-0.597-0.143-1.61-0.293-2.662-0.293c-3.529,0-5.81,1.887-5.81,4.807c0,1.867,1.073,3.43,3.702,5.394l1.148,0.863
		c2.247,1.67,3.098,2.454,3.098,4.071c0,1.865-1.369,3.024-3.572,3.024c-1.581,0-3.403-0.589-3.777-2.246
		c-0.081-0.318-0.081-0.643-0.081-0.837c0-0.37-0.229-0.502-0.445-0.502c-0.155,0-0.415,0.081-0.415,0.603
		c-0.007,0.081-0.016,0.186-0.027,0.312c-0.044,0.493-0.118,1.318-0.118,2.285c0,0.659,0.024,0.876,0.498,1.116
		c1.299,0.612,3.065,0.679,3.765,0.679c1.828,0,3.22-0.301,4.135-0.896c1.626-1.059,2.45-2.52,2.45-4.341
		C145.736,74.96,144.512,73.205,141.51,71.156"/>
	<path clip-path="url(#SVGID_2_)" fill="#C48429" d="M23.441,59.078c-0.599,0-1.372,0.041-1.885,0.069
		c-0.22,0.013-0.38,0.021-0.435,0.021c-0.126,0-0.375-0.013-0.699-0.026c-0.608-0.027-1.444-0.064-2.217-0.064
		c-0.31,0-0.886,0-0.886,0.47c0,0.151,0.074,0.408,0.558,0.408c0.312,0,0.737,0,1.028,0.094c0.225,0.114,0.259,0.348,0.259,0.478
		c0,0.262-0.146,0.73-0.256,1.066c-0.606,1.978-4.284,11.601-6.134,15.965L7.261,62.854c-0.405-1.047-0.789-2.038-0.789-2.386
		c0-0.162,0.043-0.291,0.248-0.385c0.215-0.096,0.693-0.128,1.038-0.128c0.477,0,0.528-0.308,0.528-0.439
		c0-0.438-0.647-0.438-1.033-0.438c-0.752,0-1.602,0.039-2.165,0.066c-0.287,0.013-0.503,0.024-0.602,0.024
		c-0.118,0-0.384-0.011-0.737-0.024c-0.712-0.026-1.789-0.066-2.745-0.066c-0.425,0-1.004,0-1.004,0.438
		c0,0.267,0.182,0.439,0.467,0.439c0.162,0,0.655,0,1.069,0.108c0.937,0.271,1.353,0.526,1.99,2.155l7.291,18.242l0.082,0.207
		c0.543,1.371,0.707,1.785,1.204,1.785c0.373,0,0.51-0.304,0.964-1.313c0.132-0.291,0.293-0.647,0.494-1.08
		c0.666-1.418,1.929-4.442,3.677-8.628l1.36-3.276c1.063-2.56,1.902-4.582,2.141-5.19c0.779-1.963,1.208-2.455,1.548-2.689
		c0.508-0.32,1.108-0.32,1.304-0.32c0.51,0,0.586-0.274,0.586-0.439C24.177,59.225,23.93,59.078,23.441,59.078"/>
	<path clip-path="url(#SVGID_2_)" fill="#C48429" d="M29.872,81.2c-0.207,0-0.732-0.053-1.123-0.113
		c-0.563-0.087-0.645-0.356-0.733-1.102c-0.114-0.999-0.114-2.889-0.114-5.282v-4.326c0-3.81,0-4.495,0.026-5.263
		c0.058-0.835,0.185-1.041,0.715-1.151c0.267-0.055,0.424-0.055,0.591-0.055c0.211,0,0.426-0.213,0.426-0.424
		c0-0.282-0.211-0.425-0.626-0.425c-0.564,0-1.583,0.03-2.147,0.047c-0.213,0.007-0.36,0.012-0.392,0.012
		c-0.041,0-0.204-0.006-0.436-0.013c-0.568-0.017-1.537-0.046-2.13-0.046c-0.415,0-0.627,0.143-0.627,0.425
		c0,0.201,0.175,0.424,0.424,0.424c0.16,0,0.463,0.029,0.733,0.085c0.372,0.077,0.572,0.271,0.631,1.122
		c0.056,0.771,0.056,1.456,0.056,5.262v4.326c0,2.003-0.017,4.194-0.142,5.282c-0.09,0.763-0.174,1.029-0.495,1.105
		c-0.212,0.054-0.513,0.109-0.724,0.109c-0.267,0-0.427,0.217-0.427,0.426c0,0.157,0.082,0.425,0.629,0.425
		c0.55,0,1.494-0.045,2.059-0.069c0.237-0.011,0.407-0.018,0.449-0.018c0.025,0,0.122,0.004,0.273,0.01
		c0.538,0.022,1.797,0.077,2.901,0.077c0.581,0,0.626-0.327,0.626-0.425C30.294,81.417,30.137,81.2,29.872,81.2"/>
	<path clip-path="url(#SVGID_2_)" fill="#C48429" d="M51.304,63.059c-0.684,0-1.281,0.025-1.692,0.042
		c-0.212,0.01-0.374,0.016-0.471,0.016c-0.095,0-0.291-0.006-0.551-0.015c-0.533-0.017-1.33-0.043-2.103-0.043
		c-0.214,0-0.714,0-0.714,0.396c0,0.271,0.171,0.453,0.425,0.453c0.189,0,0.752,0.028,1.2,0.113c0.56,0.104,0.74,0.401,0.771,2.063
		l0.248,11.71c-0.259-0.274-0.59-0.626-0.976-1.033c-1.252-1.33-2.967-3.149-4.628-4.868c-2.665-2.742-5.201-5.408-6.717-7.002
		c-0.706-0.741-1.174-1.234-1.304-1.365l-0.118-0.119c-0.383-0.394-0.703-0.694-1.02-0.694c-0.524,0-0.567,0.755-0.567,1.463V78.22
		c0,2.188-0.105,2.718-0.566,2.845c-0.346,0.108-0.786,0.135-0.97,0.135c-0.239,0-0.426,0.188-0.426,0.426
		c0,0.425,0.455,0.425,0.626,0.425c0.804,0,1.573-0.043,2.033-0.069c0.203-0.01,0.349-0.018,0.419-0.018
		c0.063,0,0.188,0.007,0.366,0.016c0.478,0.025,1.279,0.071,2.314,0.071c0.567,0,0.686-0.231,0.686-0.425
		c0-0.238-0.188-0.426-0.427-0.426c-0.265,0-0.806-0.036-1.212-0.137c-0.515-0.131-0.754-0.534-0.813-2.589l-0.271-10.967
		c1.075,1.16,3.445,3.648,6.176,6.513c2.653,2.77,6.327,6.394,6.612,6.645c1.505,1.383,1.74,1.558,2.084,1.558
		c0.425,0,0.425-0.341,0.425-1.98l0.058-14.363c0-1.536,0.094-1.786,0.714-1.916c0.267-0.054,0.453-0.054,0.563-0.054
		c0.293,0,0.511-0.238,0.511-0.453C51.989,63.059,51.492,63.059,51.304,63.059"/>
	<path clip-path="url(#SVGID_2_)" fill="#162B75" d="M75.288,81.2c-0.181,0-0.739-0.055-1.092-0.113
		c-0.584-0.087-0.642-0.334-0.732-1.102c-0.128-1.099-0.145-3.287-0.145-5.282v-4.326c0-3.805,0-4.49,0.058-5.263
		c0.058-0.836,0.18-1.042,0.685-1.15c0.295-0.056,0.428-0.056,0.595-0.056c0.232,0,0.452-0.205,0.452-0.424
		c0-0.193-0.113-0.425-0.656-0.425c-0.524,0-1.468,0.028-2.041,0.045c-0.247,0.007-0.424,0.014-0.468,0.014
		c-0.027,0-0.142-0.004-0.317-0.01c-0.555-0.016-1.712-0.049-2.566-0.049c-0.417,0-0.627,0.143-0.627,0.425
		c0,0.201,0.174,0.424,0.426,0.424c0.213,0,0.634,0.029,0.834,0.056c0.656,0.092,0.758,0.315,0.815,1.177
		c0.029,0.76,0.059,1.545,0.059,5.296v0.439l-10.426-0.001v-0.438c0-3.771,0-4.555,0.029-5.322c0.054-0.835,0.182-1.04,0.715-1.151
		c0.263-0.055,0.423-0.055,0.59-0.055c0.211,0,0.424-0.213,0.424-0.424c0-0.282-0.211-0.425-0.627-0.425
		c-0.564,0-1.566,0.03-2.123,0.047c-0.209,0.007-0.355,0.012-0.386,0.012c-0.036,0-0.172-0.005-0.372-0.011
		c-0.579-0.017-1.685-0.048-2.54-0.048c-0.415,0-0.627,0.143-0.627,0.425c0,0.211,0.216,0.424,0.426,0.424
		c0.213,0,0.633,0.029,0.834,0.056c0.674,0.095,0.791,0.344,0.846,1.152c0.058,0.771,0.058,1.456,0.058,5.261v4.326
		c0,2.392,0,4.279-0.144,5.274l-0.011,0.07c-0.116,0.729-0.178,0.971-0.485,1.043c-0.211,0.054-0.513,0.109-0.724,0.109
		c-0.267,0-0.426,0.217-0.426,0.426c0,0.157,0.082,0.425,0.629,0.425c0.549,0,1.507-0.045,2.08-0.069
		c0.241-0.011,0.414-0.018,0.456-0.018c0.026,0,0.12,0.004,0.27,0.01c0.531,0.022,1.77,0.077,2.875,0.077
		c0.581,0,0.627-0.327,0.627-0.425c0-0.207-0.149-0.426-0.424-0.426c-0.208,0-0.731-0.053-1.121-0.113
		c-0.562-0.087-0.645-0.356-0.734-1.102c-0.115-0.999-0.115-2.863-0.115-5.225l0.001-2.373l10.425,0.001v2.372
		c0,2.345,0,4.196-0.115,5.194c-0.091,0.772-0.184,1.059-0.526,1.136c-0.283,0.072-0.523,0.109-0.695,0.109
		c-0.265,0-0.423,0.217-0.423,0.426c0,0.28,0.21,0.425,0.625,0.425c0.543,0,1.565-0.047,2.114-0.071
		c0.215-0.01,0.365-0.016,0.396-0.016c0.034,0,0.154,0.005,0.333,0.012c0.571,0.024,1.758,0.075,2.81,0.075
		c0.627,0,0.658-0.355,0.658-0.425C75.744,81.414,75.587,81.2,75.288,81.2"/>
	<path clip-path="url(#SVGID_2_)" fill="#162B75" d="M86.086,62.713c-7.098,0-10.289,5.73-10.289,9.798
		c0,4.747,3.175,9.856,10.145,9.856c5.931,0,10.401-4.398,10.401-10.231C96.343,66.5,92.221,62.713,86.086,62.713 M86.662,80.911
		c-4.661,0-7.792-3.643-7.792-9.063c0-4.862,2.643-7.766,7.071-7.766c3.663,0,7.362,2.706,7.362,8.745
		C93.304,80.522,87.77,80.911,86.662,80.911"/>
	<path clip-path="url(#SVGID_2_)" fill="#162B75" d="M120.92,81.2c-0.243,0-0.889,0-1.573-0.221c-0.829-0.274-1.04-1.291-1.146-2.35
		l-1.731-15.058c-0.09-0.71-0.374-0.858-0.599-0.858c-0.339,0-0.51,0.343-0.604,0.529l-7.186,14.794l-7.468-14.824
		c-0.216-0.435-0.544-0.499-0.72-0.499c-0.266,0-0.466,0.249-0.508,0.631L97.54,79.348l-0.028,0.238
		c-0.106,0.884-0.198,1.43-0.767,1.527l-0.073,0.013c-0.313,0.049-0.471,0.073-0.641,0.073c-0.266,0-0.481,0.178-0.481,0.396
		c0,0.17,0.084,0.455,0.655,0.455c0.444,0,1.096-0.036,1.57-0.063c0.269-0.014,0.479-0.024,0.562-0.024
		c0.063,0,0.224,0.007,0.444,0.019c0.503,0.028,1.265,0.068,1.922,0.068c0.567,0,0.687-0.247,0.687-0.455
		c0-0.222-0.229-0.396-0.427-0.396c-0.188,0-0.542-0.035-0.93-0.139C99.6,80.959,99.6,80.679,99.6,80.586
		c0-0.402,0-0.858,0.028-1.221l0.924-10.439c0.467,0.998,1.331,2.761,2.052,4.231c0.372,0.762,0.705,1.443,0.927,1.901
		c0.654,1.371,2.369,4.584,2.975,5.693c0.496,0.901,0.681,1.24,1.063,1.24s0.556-0.318,1.094-1.424l5.814-11.908l1.147,11.723
		c0.046,0.372,0.02,0.566-0.002,0.637c-0.176,0.065-0.29,0.223-0.29,0.404c0,0.362,0.436,0.434,0.922,0.48
		c0.94,0.088,3.785,0.146,4.348,0.146c0.452,0,0.744-0.18,0.744-0.455C121.346,81.366,121.166,81.2,120.92,81.2"/>
	<path clip-path="url(#SVGID_2_)" fill="#162B75" d="M133.66,78.286c-0.371,0-0.44,0.348-0.482,0.566
		c-0.143,0.97-0.483,1.295-1.013,1.526c-0.625,0.245-1.818,0.245-2.458,0.245c-2.506,0-2.753-0.309-2.806-1.753
		c-0.021-0.346-0.012-1.927-0.004-3.082c0.003-0.456,0.004-0.851,0.004-1.087l0.002-1.997c0.599,0.002,3.109,0.034,3.758,0.113
		c0.992,0.117,1.063,0.409,1.113,0.607c0.104,0.279,0.104,0.508,0.104,0.731c0,0.312,0.199,0.452,0.396,0.452
		c0.275,0,0.453-0.269,0.453-0.685c0-0.151,0.058-1.065,0.114-1.571c0.037-0.518,0.11-0.858,0.157-1.083
		c0.028-0.13,0.046-0.216,0.046-0.287c0-0.314-0.198-0.427-0.369-0.427c-0.163,0-0.275,0.119-0.431,0.282l-0.098,0.102
		c-0.195,0.195-0.517,0.225-1.047,0.276l-0.06,0.006c-0.41,0.04-2.388,0.057-4.139,0.057c-0.001-0.013-0.001-0.023-0.001-0.035
		v-6.662c0-0.014,0.001-0.027,0.002-0.038c0.606,0.003,3.175,0.035,3.555,0.085c1.386,0.174,1.521,0.34,1.639,0.611
		c0.099,0.25,0.126,0.621,0.126,0.782c0,0.502,0.326,0.542,0.427,0.542c0.235,0,0.396-0.225,0.447-0.438
		c0.039-0.186,0.071-0.611,0.111-1.146c0.015-0.221,0.027-0.408,0.039-0.497c0.035-0.409,0.099-0.665,0.145-0.854
		c0.033-0.131,0.056-0.225,0.056-0.318c0-0.432-0.28-0.453-0.337-0.453c-0.117,0-0.22,0.045-0.303,0.082
		c-0.033,0.015-0.066,0.03-0.076,0.035L132.574,63c-0.238,0.036-0.597,0.095-0.975,0.117c-0.167,0.008-0.765,0.013-1.777,0.013
		c-1.396,0-3.199-0.009-3.935-0.013h-0.332c-0.038,0-0.177-0.004-0.384-0.011c-0.589-0.017-1.707-0.049-2.559-0.049
		c-0.417,0-0.628,0.144-0.628,0.427c0,0.211,0.214,0.424,0.426,0.424c0.229,0,0.651,0.03,0.837,0.055
		c0.671,0.093,0.789,0.343,0.845,1.152c0.056,0.771,0.056,1.456,0.056,5.26v4.326c0,2.393,0,4.282-0.141,5.275l-0.013,0.076
		c-0.114,0.725-0.181,0.982-0.456,1.032c-0.093,0.011-0.196,0.03-0.303,0.052c-0.16,0.031-0.329,0.063-0.451,0.063
		c-0.267,0-0.424,0.216-0.424,0.424c0,0.159,0.081,0.425,0.626,0.425c0.432,0,1.053-0.034,1.482-0.058
		c0.543-0.029,1.028-0.029,1.086-0.029c0.36,0,1.031,0,2.099,0.059l0.626,0.018c0.998,0.031,2.24,0.069,3.792,0.069
		c0.998,0,1.411,0,1.63-0.801c0.148-0.547,0.354-2.232,0.354-2.423C134.056,78.343,133.779,78.286,133.66,78.286"/>
	<rect x="0.038" y="89.955" clip-path="url(#SVGID_2_)" fill="#C48429" width="51.951" height="0.674"/>
	<polygon clip-path="url(#SVGID_2_)" fill="#C48429" points="55.63,92.339 55.63,88.233 55.715,88.233 58.451,91.381 58.451,88.233 
		58.855,88.233 58.855,92.339 58.763,92.339 56.054,89.231 56.054,92.339 	"/>
	<rect x="65.537" y="88.233" clip-path="url(#SVGID_2_)" fill="#C48429" width="0.411" height="4.105"/>
	<polygon clip-path="url(#SVGID_2_)" fill="#C48429" points="69.268,88.233 69.674,88.233 69.674,89.955 71.77,89.955 71.77,88.233 
		72.178,88.233 72.178,92.339 71.77,92.339 71.77,90.354 69.674,90.354 69.674,92.339 69.268,92.339 	"/>
	<path clip-path="url(#SVGID_2_)" fill="#C48429" d="M75.465,88.232l1.917,4.107h-0.445l-0.645-1.353h-1.771l-0.641,1.353h-0.455
		l1.938-4.107H75.465z M75.416,89.106l-0.701,1.487h1.399L75.416,89.106z"/>
	<polygon clip-path="url(#SVGID_2_)" fill="#C48429" points="78.633,92.339 78.633,88.233 78.724,88.233 81.452,91.381 
		81.452,88.233 81.853,88.233 81.853,92.339 81.766,92.339 79.055,89.231 79.055,92.339 	"/>
	<polygon clip-path="url(#SVGID_2_)" fill="#C48429" points="83.19,88.233 83.603,88.233 83.603,89.955 85.69,89.955 85.69,88.233 
		86.101,88.233 86.101,92.339 85.69,92.339 85.69,90.354 83.603,90.354 83.603,92.339 83.19,92.339 	"/>
	<path clip-path="url(#SVGID_2_)" fill="#C48429" d="M89.491,88.233h0.819c0.467,0,0.78,0.02,0.945,0.062
		c0.236,0.061,0.427,0.179,0.577,0.356c0.146,0.178,0.222,0.404,0.222,0.676c0,0.275-0.075,0.502-0.218,0.678
		c-0.146,0.175-0.343,0.298-0.597,0.357c-0.189,0.048-0.534,0.067-1.045,0.067h-0.293v1.91h-0.411V88.233z M89.902,88.639v1.387
		l0.694,0.012c0.281,0,0.485-0.029,0.617-0.077c0.13-0.052,0.232-0.132,0.307-0.25c0.072-0.113,0.109-0.244,0.109-0.382
		c0-0.14-0.037-0.262-0.109-0.377c-0.074-0.115-0.174-0.196-0.292-0.243c-0.126-0.047-0.324-0.069-0.603-0.069H89.902z"/>
	<polygon clip-path="url(#SVGID_2_)" fill="#C48429" points="93.328,88.233 93.739,88.233 93.739,89.955 95.829,89.955 
		95.829,88.233 96.236,88.233 96.236,92.339 95.829,92.339 95.829,90.354 93.739,90.354 93.739,92.339 93.328,92.339 	"/>
	<path clip-path="url(#SVGID_2_)" fill="#C48429" d="M97.521,88.233h0.411v2.477c0,0.294,0.007,0.481,0.016,0.552
		c0.02,0.163,0.07,0.3,0.143,0.406c0.073,0.108,0.189,0.2,0.344,0.275c0.155,0.071,0.308,0.108,0.466,0.108
		c0.135,0,0.271-0.029,0.389-0.085c0.129-0.063,0.228-0.141,0.316-0.242c0.08-0.104,0.143-0.226,0.183-0.371
		c0.025-0.104,0.044-0.318,0.044-0.644v-2.477h0.406v2.477c0,0.369-0.034,0.663-0.107,0.895c-0.073,0.221-0.213,0.418-0.426,0.587
		c-0.219,0.167-0.477,0.254-0.782,0.254c-0.331,0-0.616-0.084-0.852-0.243c-0.231-0.154-0.395-0.365-0.474-0.627
		c-0.049-0.159-0.076-0.447-0.076-0.865V88.233z"/>
	<path clip-path="url(#SVGID_2_)" fill="#C48429" d="M105.526,88.998l-0.326,0.246c-0.178-0.232-0.394-0.411-0.642-0.528
		c-0.251-0.119-0.525-0.181-0.821-0.181c-0.331,0-0.635,0.08-0.913,0.239c-0.276,0.153-0.495,0.365-0.649,0.632
		c-0.152,0.265-0.23,0.564-0.23,0.892c0,0.501,0.171,0.92,0.517,1.255c0.341,0.335,0.777,0.504,1.302,0.504
		c0.57,0,1.052-0.228,1.438-0.678l0.326,0.244c-0.202,0.26-0.464,0.467-0.768,0.605c-0.302,0.142-0.644,0.217-1.021,0.217
		c-0.721,0-1.29-0.243-1.7-0.721c-0.352-0.405-0.527-0.889-0.527-1.462c0-0.604,0.212-1.11,0.637-1.517
		c0.423-0.411,0.947-0.615,1.582-0.615c0.387,0,0.729,0.076,1.037,0.225C105.073,88.509,105.328,88.72,105.526,88.998"/>
	<polygon clip-path="url(#SVGID_2_)" fill="#C48429" points="108.819,92.339 108.819,88.233 108.907,88.233 111.637,91.381 
		111.637,88.233 112.044,88.233 112.044,92.339 111.951,92.339 109.238,89.231 109.238,92.339 	"/>
	<path clip-path="url(#SVGID_2_)" fill="#C48429" d="M117.461,88.922l-0.32,0.307c-0.229-0.228-0.481-0.401-0.753-0.518
		c-0.274-0.114-0.539-0.175-0.796-0.175c-0.322,0-0.627,0.08-0.921,0.239c-0.291,0.156-0.517,0.372-0.677,0.645
		c-0.16,0.267-0.238,0.554-0.238,0.856c0,0.31,0.084,0.602,0.251,0.88c0.163,0.276,0.39,0.499,0.685,0.653
		c0.29,0.16,0.611,0.241,0.96,0.241c0.423,0,0.778-0.121,1.068-0.358c0.292-0.238,0.47-0.547,0.522-0.925h-1.311v-0.396h1.768
		c-0.002,0.633-0.188,1.139-0.563,1.511c-0.373,0.373-0.872,0.563-1.496,0.563c-0.76,0-1.362-0.262-1.807-0.779
		c-0.337-0.398-0.508-0.859-0.508-1.381c0-0.389,0.1-0.749,0.291-1.085c0.198-0.335,0.465-0.596,0.806-0.788
		c0.339-0.186,0.724-0.281,1.153-0.281c0.35,0,0.676,0.063,0.983,0.188C116.865,88.448,117.163,88.646,117.461,88.922"/>
	<path clip-path="url(#SVGID_2_)" fill="#C48429" d="M121.048,88.232l1.914,4.107h-0.443l-0.644-1.353h-1.769l-0.64,1.353h-0.458
		l1.938-4.107H121.048z M121,89.106l-0.706,1.487h1.4L121,89.106z"/>
	<path clip-path="url(#SVGID_2_)" fill="#C48429" d="M124.07,88.233h0.818c0.466,0,0.782,0.02,0.945,0.062
		c0.235,0.061,0.428,0.179,0.578,0.356c0.146,0.178,0.223,0.404,0.223,0.676c0,0.275-0.074,0.502-0.22,0.678
		c-0.143,0.175-0.344,0.298-0.598,0.357c-0.185,0.048-0.535,0.067-1.043,0.067h-0.298v1.91h-0.406V88.233z M124.477,88.639v1.387
		l0.695,0.012c0.284,0,0.49-0.029,0.62-0.077c0.13-0.052,0.232-0.132,0.305-0.25c0.074-0.113,0.11-0.244,0.11-0.382
		c0-0.14-0.036-0.262-0.11-0.377c-0.072-0.115-0.168-0.196-0.293-0.243c-0.123-0.047-0.318-0.069-0.597-0.069H124.477z"/>
	<polygon clip-path="url(#SVGID_2_)" fill="#C48429" points="130.059,88.639 130.059,88.233 132.31,88.233 132.31,88.639 
		131.395,88.639 131.395,92.339 130.978,92.339 130.978,88.639 	"/>
	<path clip-path="url(#SVGID_2_)" fill="#C48429" d="M133.612,88.233h0.824c0.448,0,0.761,0.018,0.922,0.058
		c0.245,0.053,0.441,0.173,0.595,0.358c0.151,0.184,0.231,0.409,0.231,0.678c0,0.223-0.052,0.421-0.159,0.586
		c-0.104,0.171-0.256,0.302-0.453,0.388c-0.193,0.082-0.463,0.129-0.807,0.132l1.478,1.907h-0.509l-1.478-1.907h-0.233v1.907h-0.411
		V88.233z M134.023,88.639v1.39l0.708,0.009c0.277,0,0.479-0.029,0.606-0.08c0.133-0.052,0.234-0.134,0.312-0.249
		c0.072-0.114,0.111-0.243,0.111-0.384c0-0.137-0.039-0.262-0.114-0.374c-0.076-0.117-0.176-0.195-0.29-0.242
		c-0.122-0.047-0.325-0.069-0.606-0.069H134.023z"/>
	<path clip-path="url(#SVGID_2_)" fill="#C48429" d="M139.509,88.232l1.914,4.107h-0.438l-0.649-1.353h-1.767l-0.64,1.353h-0.459
		l1.94-4.107H139.509z M139.456,89.106l-0.699,1.487h1.403L139.456,89.106z"/>
	<polygon clip-path="url(#SVGID_2_)" fill="#C48429" points="142.729,92.339 142.729,88.233 142.814,88.233 145.547,91.381 
		145.547,88.233 145.953,88.233 145.953,92.339 145.862,92.339 143.149,89.231 143.149,92.339 	"/>
	<path clip-path="url(#SVGID_2_)" fill="#C48429" d="M63.883,88.442c0.06-0.063,0.103-0.136,0.125-0.228
		c0.021-0.087,0.032-0.184,0.032-0.29h-0.481v-0.433h0.774v0.106c0,0.038,0.007,0.079,0.018,0.13c0,0.104-0.007,0.213-0.018,0.325
		c0,0.125-0.031,0.24-0.09,0.343c-0.061,0.104-0.15,0.193-0.261,0.268c-0.033,0.025-0.064,0.048-0.103,0.072
		c-0.037,0.021-0.073,0.035-0.109,0.05c0.176,0.201,0.312,0.433,0.413,0.689c0.098,0.258,0.15,0.531,0.15,0.817
		c0,0.628-0.205,1.158-0.614,1.599c-0.412,0.441-0.906,0.66-1.492,0.66c-0.568,0-1.057-0.214-1.473-0.641
		c-0.431-0.443-0.644-0.969-0.644-1.582c0-0.631,0.207-1.165,0.62-1.604c0.407-0.433,0.908-0.653,1.49-0.653
		c0.255,0,0.503,0.048,0.747,0.148c0.239,0.101,0.456,0.238,0.645,0.42c0.022-0.011,0.064-0.036,0.138-0.088
		C63.821,88.5,63.867,88.464,63.883,88.442 M62.238,88.491c-0.477-0.002-0.881,0.176-1.218,0.534
		c-0.333,0.357-0.502,0.792-0.502,1.304c0,0.497,0.169,0.92,0.508,1.271c0.341,0.354,0.743,0.53,1.212,0.53
		c0.464,0,0.863-0.178,1.203-0.532c0.336-0.357,0.505-0.79,0.505-1.305c0-0.496-0.174-0.919-0.518-1.27
		C63.084,88.668,62.689,88.491,62.238,88.491"/>
	<rect x="75.403" y="92.556" clip-path="url(#SVGID_2_)" fill="#C48429" width="0.372" height="0.629"/>
	<polygon clip-path="url(#SVGID_2_)" fill="#C48429" points="98.694,88.011 99.572,87.355 99.894,87.628 98.857,88.165 	"/>
	<path clip-path="url(#SVGID_2_)" fill="#C48429" d="M120.131,88.216l0.726-0.635h0.321l0.738,0.635l-0.458,0.005l-0.44-0.365
		l-0.434,0.357L120.131,88.216z M120.836,92.605h0.374v0.633h-0.374V92.605z"/>
	<polygon clip-path="url(#SVGID_2_)" fill="#C48429" points="140.312,88.011 140.151,88.165 139.112,87.628 139.434,87.355 	"/>
</g>
<g>
	<defs>
		<path id="SVGID_3_" d="M90.131,17.325c-9.486,1.151-19.185,4.306-19.828,13.864c-0.298,4.469,1.063,7.827,2.598,11.068
			c-3.856-3.836-9.421-6.911-17.227-6.161c4.753,1.362,10.364,3.966,13.379,7.407c0.636,0.732,1.57,2.001,1.349,3.08
			c-0.367,1.815-3.677,1.446-5.681,1.543c4.155,1.683,8.801,4.715,14.727,4.521c2.962-0.094,5.139-1.916,4.909-5.289
			c-0.417-6.063-4.835-11.245-5.299-18.096c-0.515-7.728,4.858-10.564,10.882-11.833c0.119,0.036,0.311,0,0.36-0.04
			c0.039-0.03,0.004-0.064-0.163-0.064H90.131z"/>
	</defs>
	<clipPath id="SVGID_4_">
		<use xlink:href="#SVGID_3_"  overflow="visible"/>
	</clipPath>
	
		<linearGradient id="SVGID_5_" gradientUnits="userSpaceOnUse" x1="0" y1="93.2388" x2="1" y2="93.2388" gradientTransform="matrix(-14.0793 -14.0793 -14.0793 14.0793 1398.4536 -1264.9014)">
		<stop  offset="0" style="stop-color:#FDB913"/>
		<stop  offset="0.0942" style="stop-color:#F2AF1C"/>
		<stop  offset="0.479" style="stop-color:#D49632"/>
		<stop  offset="0.7947" style="stop-color:#C28739"/>
		<stop  offset="1" style="stop-color:#BB813B"/>
	</linearGradient>
	<polygon clip-path="url(#SVGID_4_)" fill="url(#SVGID_5_)" points="73.007,70.174 37.916,35.083 73.007,-0.008 108.099,35.083 	"/>
</g>
</svg>
